<svg width="13" height="7" viewBox="0 0 13 7" fill="none" xmlns="http://www.w3.org/2000/svg">
<path d="M11.5685 1.03284L6.88346 5.64384C6.78124 5.74497 6.64325 5.80169 6.49946 5.80169C6.35567 5.80169 6.21768 5.74497 6.11546 5.64384L1.43046 1.03384C1.3276 0.932766 1.18917 0.87613 1.04496 0.87613C0.900753 0.87613 0.762315 0.932766 0.65946 1.03384C0.608811 1.08322 0.568559 1.14223 0.541075 1.20741C0.513591 1.27259 0.499432 1.34261 0.499432 1.41334C0.499432 1.48408 0.513591 1.5541 0.541075 1.61927C0.568559 1.68445 0.608811 1.74346 0.65946 1.79284L5.34346 6.40284C5.65198 6.70577 6.06708 6.87549 6.49946 6.87549C6.93184 6.87549 7.34694 6.70577 7.65546 6.40284L12.3395 1.79284C12.3903 1.74345 12.4306 1.68437 12.4582 1.6191C12.4858 1.55383 12.5 1.4837 12.5 1.41284C12.5 1.34199 12.4858 1.27185 12.4582 1.20658C12.4306 1.14131 12.3903 1.08224 12.3395 1.03284C12.2366 0.931767 12.0982 0.875131 11.954 0.875131C11.8098 0.875131 11.6713 0.931767 11.5685 1.03284Z" fill="black"/>
</svg>
