<svg width="144" height="25" viewBox="0 0 144 25" fill="none" xmlns="http://www.w3.org/2000/svg">
<path d="M5.825 21.5625L7.45 14.5375L2 9.8125L9.2 9.1875L12 2.5625L14.8 9.1875L22 9.8125L16.55 14.5375L18.175 21.5625L12 17.8375L5.825 21.5625Z" fill="#ECA93A"/>
<path d="M35.825 21.5625L37.45 14.5375L32 9.8125L39.2 9.1875L42 2.5625L44.8 9.1875L52 9.8125L46.55 14.5375L48.175 21.5625L42 17.8375L35.825 21.5625Z" fill="#ECA93A"/>
<path d="M65.825 21.5625L67.45 14.5375L62 9.8125L69.2 9.1875L72 2.5625L74.8 9.1875L82 9.8125L76.55 14.5375L78.175 21.5625L72 17.8375L65.825 21.5625Z" fill="#ECA93A"/>
<path d="M95.825 21.5625L97.45 14.5375L92 9.8125L99.2 9.1875L102 2.5625L104.8 9.1875L112 9.8125L106.55 14.5375L108.175 21.5625L102 17.8375L95.825 21.5625Z" fill="#ECA93A"/>
<path d="M125.825 21.5625L127.45 14.5375L122 9.8125L129.2 9.1875L132 2.5625L134.8 9.1875L142 9.8125L136.55 14.5375L138.175 21.5625L132 17.8375L125.825 21.5625Z" fill="#ECA93A"/>
</svg>
